<svg preserveAspectRatio="none" overflow="visible" style="display: block;" width="24" height="24" viewBox="0 0 24 24" fill="none" xmlns="http://www.w3.org/2000/svg">
<g id="verify">
<path id="Vector" opacity="0.34" d="M8.38 12L10.79 14.42L15.62 9.58" stroke="#DDDEDF" stroke-width="1.5" stroke-linecap="round" stroke-linejoin="round"/>
<path id="Vector_2" d="M10.75 2.45C11.44 1.86 12.57 1.86 13.27 2.45L14.85 3.81C15.15 4.07 15.71 4.28 16.11 4.28H17.81C18.87 4.28 19.74 5.15 19.74 6.21V7.91C19.74 8.3 19.95 8.87 20.21 9.17L21.57 10.75C22.16 11.44 22.16 12.57 21.57 13.27L20.21 14.85C19.95 15.15 19.74 15.71 19.74 16.11V17.81C19.74 18.87 18.87 19.74 17.81 19.74H16.11C15.72 19.74 15.15 19.95 14.85 20.21L13.27 21.57C12.58 22.16 11.45 22.16 10.75 21.57L9.17 20.21C8.87 19.95 8.31 19.74 7.91 19.74H6.18C5.12 19.74 4.25 18.87 4.25 17.81V16.1C4.25 15.71 4.04 15.15 3.79 14.85L2.44 13.26C1.86 12.57 1.86 11.45 2.44 10.76L3.79 9.17C4.04 8.87 4.25 8.31 4.25 7.92V6.2C4.25 5.14 5.12 4.27 6.18 4.27H7.91C8.3 4.27 8.87 4.06 9.17 3.8L10.75 2.45Z" stroke="#DDDEDF" stroke-width="1.5" stroke-linecap="round" stroke-linejoin="round"/>
<g id="Vector_3" opacity="0">
</g>
</g>
</svg>
